<!-- Generator: Adobe Illustrator 19.1.0, SVG Export Plug-In  -->
<svg version="1.1"
	 xmlns="http://www.w3.org/2000/svg" xmlns:xlink="http://www.w3.org/1999/xlink" xmlns:a="http://ns.adobe.com/AdobeSVGViewerExtensions/3.0/"
	 x="0px" y="0px" width="87.1px" height="50.6px" viewBox="0 0 87.1 50.6" style="enable-background:new 0 0 87.1 50.6;"
	 xml:space="preserve">
<style type="text/css">
	.st0{fill:#00D9EE;}
	.st1{fill:#FFFFFF;}
</style>
<defs>
</defs>
<g>
	<g>
		<g>
			<circle class="st0" cx="23.2" cy="23.2" r="23.2"/>
			<g id="Test_Tube_1_">
				<g>
					<path class="st1" d="M21,34.6c-0.4,0-0.7,0.3-0.7,0.7s0.3,0.7,0.7,0.7c0.4,0,0.7-0.3,0.7-0.7S21.4,34.6,21,34.6z M22.4,28.9
						c-0.4,0-0.7,0.3-0.7,0.7c0,0.4,0.3,0.7,0.7,0.7c0.4,0,0.7-0.3,0.7-0.7C23.1,29.2,22.8,28.9,22.4,28.9z M21.7,24.6
						c0-0.8-0.6-1.4-1.4-1.4c-0.8,0-1.4,0.6-1.4,1.4c0,0.8,0.6,1.4,1.4,1.4C21.1,26,21.7,25.4,21.7,24.6z M31.7,8.6H14.5
						c-0.8,0-1.9,0.8-1.9,1.6v1.4c0,0.8,1.1,1.9,1.9,1.9h1.1v19.6c0,4,3.5,7.2,7.5,7.2c4,0,7.5-3.2,7.5-7.2V13.6h1.1
						c0.8,0,1.9-1.1,1.9-1.9v-1.4C33.6,9.4,32.5,8.6,31.7,8.6z M28.6,33.2c0,3.2-2.3,5.7-5.5,5.7c-3.2,0-5.5-2.6-5.5-5.7V18.1
						c1,0.4,2,0.7,3.3,0.7l0,0c2.6,0,5.1-1.5,6.1-2c0.7-0.3,1.6-0.6,1.6-0.8V33.2z M28.6,14.7c-1,0.2-1.5,0.6-2.3,1
						c-1.1,0.5-2.1,1.1-3.9,1.6c-1.8,0.6-3.8,0.1-4.8-0.6v-3h11V14.7z M31.6,11.6h-17v-1h17V11.6z M25.3,31.8
						c-0.4,0-0.7,0.3-0.7,0.7s0.3,0.7,0.7,0.7s0.7-0.3,0.7-0.7S25.7,31.8,25.3,31.8z M26,20.3c-0.8,0-1.4,0.6-1.4,1.4
						c0,0.8,0.6,1.4,1.4,1.4c0.8,0,1.4-0.6,1.4-1.4C27.4,20.9,26.8,20.3,26,20.3z"/>
				</g>
			</g>
		</g>
		<text transform="matrix(1 0 0 1 49.8262 29.6101)" class="st0" style="font-family:'OpenSans-Semibold'; font-size:18.6581px;">Blog</text>
	</g>
	<path class="st0" d="M27.6,45.6c0,0,3.8,4.2,7,5c-0.1-1.7-0.6-5.7,1-8S27.6,45.6,27.6,45.6z"/>
</g>
</svg>
